{"title":"Jungle.2.Jungle.1997.720p.WEB-DL.DD5.1.H264-FGT","uid":12113018,"size":3484177932,"categoryP":"video","categoryS":"hd___movies","magnet":"?xt=urn:btih:df26f93dea2775433dd83d6113abe5fcd697b677&amp;dn=Jungle.2.Jungle.1997.720p.WEB-DL.DD5.1.H264-FGT&amp;tr=udp%3A%2F%2Ftracker.openbittorrent.com%3A80&amp;tr=udp%3A%2F%2Fopen.demonii.com%3A1337&amp;tr=udp%3A%2F%2Ftracker.coppersurfer.tk%3A6969&amp;tr=udp%3A%2F%2Fexodus.desync.com%3A6969","seeders":0,"leechers":0,"uploader":null,"files":3,"time":1436622670,"description":"Video\nID                                       : 1\nFormat                                   : AVC\nFormat/Info                              : Advanced Video Codec\nFormat profile                           : &lt;a class=&quot;__cf_email__&quot; href=&quot;/cdn-cgi/l/email-protection&quot; data-cfemail=&quot;2e664749466e621d001f&quot;&gt;[email&amp;#160;protected]&lt;/a&gt;&lt;script data-cfhash='f9e31' type=&quot;text/javascript&quot;&gt;\n/* &lt;![CDATA[ */!function(){try{var t=&quot;currentScript&quot;in document?document.currentScript:function(){for(var t=document.getElementsByTagName(&quot;script&quot;),e=t.length;e--;)if(t[e].getAttribute(&quot;data-cfhash&quot;))return t[e]}();if(t&amp;&amp;t.previousSibling){var e,r,n,i,c=t.previousSibling,a=c.getAttribute(&quot;data-cfemail&quot;);if(a){for(e=&quot;&quot;,r=parseInt(a.substr(0,2),16),n=2;a.length-n;n+=2)i=parseInt(a.substr(n,2),16)^r,e+=String.fromCharCode(i);e=document.createTextNode(e),c.parentNode.replaceChild(e,c)}t.parentNode.removeChild(t);}}catch(u){}}()/* ]]&gt; */&lt;/script&gt;\nFormat settings, CABAC                   : No\nFormat settings, ReFrames                : 2 frames\nCodec ID                                 : V_MPEG4/ISO/AVC\nDuration                                 : 1h 45mn\nBit rate                                 : 3 951 Kbps\nWidth                                    : 1 280 pixels\nHeight                                   : 688 pixels\nDisplay aspect ratio                     : 1.85:1\nFrame rate mode                          : Constant\nFrame rate                               : 23.976 fps\nColor space                              : YUV\nChroma subsampling                       : 4:2:0\nBit depth                                : 8 bits\nScan type                                : Progressive\nBits/(Pixel*Frame)                       : 0.187\nStream size                              : 2.90 GiB (89%)\nTitle                                    : Jungle.2.Jungle.1997.720p.WEB-DL.DD5.1.H264-FGT\nLanguage                                 : English\nDefault                                  : Yes\nForced                                   : No\nColor range                              : Limited\nColor primaries                          : BT.709\nTransfer characteristics                 : BT.709\nMatrix coefficients                      : BT.709\n\nAudio\nID                                       : 2\nFormat                                   : AC-3\nFormat/Info                              : Audio Coding 3\nMode extension                           : CM (complete main)\nFormat settings, Endianness              : Big\nCodec ID                                 : A_AC3\nDuration                                 : 1h 45mn\nBit rate mode                            : Constant\nBit rate                                 : 384 Kbps\nChannel(s)                               : 6 channels\nChannel positions                        : Front: L C R, Side: L R, LFE\nSampling rate                            : 48.0 KHz\nBit depth                                : 16 bits\nCompression mode                         : Lossy\nStream size                              : 289 MiB (9%)\nTitle                                    : Jungle.2.Jungle.1997.720p.WEB-DL.DD5.1.H264-FGT\nLanguage                                 : English\nDefault                                  : Yes\nForced                                   : No\n\nText\nID                                       : 3\nFormat                                   : UTF-8\nCodec ID                                 : S_TEXT/UTF8\nCodec ID/Info                            : UTF-8 Plain Text\nLanguage                                 : English\nDefault                                  : Yes\nForced                                   : No\n\nMenu\n00:00:00.000                             : en:Opening Credits / From Jungle To Jungle\n00:07:18.000                             : en:Michael Has A Son\n00:17:03.000                             : en:Getting To Know Mimi\n00:27:43.000                             : en:Back In Michael's Village\n00:32:58.000                             : en:Mimi Meets Charlie\n00:39:53.000                             : en:The Dinner Party\n00:54:43.000                             : en:The Coffee Buyer\n00:59:16.000                             : en:Many Tribes\n01:04:39.000                             : en:Mimi Visits The Kempsters\n01:19:27.000                             : en:Coffee Crisis\n01:29:48.000                             : en:Going Home\n01:39:25.000                             : en:Michael Joins The Tribe / End Credits","torrent":{"xt":"urn:btih:df26f93dea2775433dd83d6113abe5fcd697b677","amp;dn":"Jungle.2.Jungle.1997.720p.WEB-DL.DD5.1.H264-FGT","amp;tr":["udp%3A%2F%2Ftracker.openbittorrent.com%3A80","udp%3A%2F%2Fopen.demonii.com%3A1337","udp%3A%2F%2Ftracker.coppersurfer.tk%3A6969","udp%3A%2F%2Fexodus.desync.com%3A6969"],"infoHash":"df26f93dea2775433dd83d6113abe5fcd697b677","infoHashBuffer":{"type":"Buffer","data":[223,38,249,61,234,39,117,67,61,216,61,97,19,171,229,252,214,151,182,119]},"announce":[],"urlList":[]}}